<svg width="30" height="28" viewBox="0 0 30 28" fill="none" xmlns="http://www.w3.org/2000/svg">
<path fill-rule="evenodd" clip-rule="evenodd" d="M6.60397 12.0776C5.44269 9.97218 5 8.27489 5 7.12849C5 5.98209 5.28166 5.65329 5.56747 5.38766C5.85328 5.12203 7.14208 4.32744 7.36167 4.17926C7.58126 4.03107 8.41937 3.74308 8.94496 4.49915C9.47054 5.25521 10.4603 6.77324 11.1427 7.78168C12.2134 9.21007 11.3604 9.8371 11.0848 10.2129C10.5778 10.9045 10.2858 11.0751 10.2858 11.9243C10.2858 12.7734 12.6591 15.186 13.2266 15.7805C13.7897 16.3704 16.1544 18.4434 16.8872 18.5542C17.6251 18.6659 18.6129 17.8846 18.823 17.6865C19.8914 16.8662 20.4945 17.4881 20.9867 17.7585C21.4788 18.0288 23.7024 19.4144 24.3915 19.8814C25.04 20.3485 24.9995 21.0703 24.9995 21.0703C24.9995 21.0703 23.6619 23.1933 23.4998 23.448C23.2971 23.7452 22.8107 24 21.7163 24C20.6219 24 19.4525 23.8001 16.6736 22.2718C14.3997 21.0213 12.2321 19.063 11.0972 17.9166C9.92172 16.7702 7.93047 14.4825 6.60397 12.0776Z" fill="#4D4D4D"/>
</svg>
