<svg width="30" height="28" viewBox="0 0 30 28" fill="none" xmlns="http://www.w3.org/2000/svg">
<path fill-rule="evenodd" clip-rule="evenodd" d="M27.9251 6.65309C27.5241 7.07799 26.0351 8.60646 20.4471 14.2571L27.9871 21.6693H28.0001V6.65309H27.9251ZM9.2962 6C4.9462 6 3.3142 6.00393 2.7432 6.00885L12.3722 15.7029C13.0742 16.4111 14.0072 16.8006 14.9992 16.8006C15.9912 16.8006 16.9252 16.4111 17.6272 15.7029L27.2522 6.0118C25.4682 6.00984 16.0022 6 9.2962 6ZM9.552 14.3214C3.964 8.66981 2.476 7.14134 2.075 6.71742H2V21.7336H2.013L9.552 14.3214ZM27.3509 22.4872L19.8189 15.0829L18.2719 16.6409C17.3989 17.5212 16.2369 18.0051 14.9999 18.0051H14.9989C13.7629 18.0061 12.6009 17.5212 11.7269 16.6409L10.1809 15.0829L2.6489 22.4872V22.499V22.5H27.3509V22.499V22.4872Z" fill="#4D4D4D"/>
</svg>
